<svg width="26" height="34" viewBox="0 0 26 34" fill="none" xmlns="http://www.w3.org/2000/svg">
<path d="M11.4082 26.4379V33.4287H14.5919V26.4379C13.5342 26.5613 12.4658 26.5613 11.4082 26.4379Z" fill="#2272FB"/>
<path d="M12.8673 2.38782C10.7946 2.38782 8.7685 3.00243 7.04514 4.15395C5.32178 5.30546 3.97859 6.94215 3.18541 8.85704C2.39224 10.7719 2.18471 12.879 2.58906 14.9119C2.99342 16.9447 3.9915 18.812 5.4571 20.2776C6.9227 21.7432 8.78998 22.7413 10.8228 23.1456C12.8557 23.55 14.9628 23.3425 16.8777 22.5493C18.7926 21.7561 20.4292 20.4129 21.5807 18.6896C22.7323 16.9662 23.3469 14.9401 23.3469 12.8674C23.3434 10.0891 22.2381 7.42564 20.2736 5.4611C18.3091 3.49655 15.6456 2.39133 12.8673 2.38782ZM20.1632 10.8776C20.1632 10.948 20.1353 11.0155 20.0855 11.0652C20.0357 11.115 19.9683 11.1429 19.8979 11.1429C19.8275 11.1429 19.7601 11.115 19.7103 11.0652C19.6605 11.0155 19.6326 10.948 19.6326 10.8776V9.83231C19.6319 9.61721 19.5461 9.41112 19.394 9.25902C19.2419 9.10693 19.0359 9.02117 18.8208 9.02047H18.3061V17.245C18.3061 17.3153 18.2781 17.3828 18.2284 17.4326C18.1786 17.4823 18.1111 17.5103 18.0408 17.5103H17.5101V18.8368C17.5101 19.0479 17.4263 19.2503 17.277 19.3996C17.1278 19.5489 16.9253 19.6327 16.7142 19.6327H15.653C15.4419 19.6327 15.2395 19.5489 15.0902 19.3996C14.9409 19.2503 14.8571 19.0479 14.8571 18.8368V17.5103H11.1428V18.8368C11.1428 19.0479 11.0589 19.2503 10.9097 19.3996C10.7604 19.5489 10.558 19.6327 10.3469 19.6327H9.28566C9.07457 19.6327 8.87212 19.5489 8.72286 19.3996C8.5736 19.2503 8.48974 19.0479 8.48974 18.8368V17.5103H7.95913C7.88876 17.5103 7.82128 17.4823 7.77153 17.4326C7.72177 17.3828 7.69382 17.3153 7.69382 17.245V9.02047H7.17913C6.96403 9.02117 6.75794 9.10693 6.60585 9.25902C6.45375 9.41112 6.36799 9.61721 6.36729 9.83231V10.8776C6.36729 10.948 6.33934 11.0155 6.28959 11.0652C6.23983 11.115 6.17235 11.1429 6.10199 11.1429C6.03162 11.1429 5.96414 11.115 5.91439 11.0652C5.86463 11.0155 5.83668 10.948 5.83668 10.8776V9.83231C5.83738 9.47648 5.97904 9.13543 6.23065 8.88383C6.48225 8.63222 6.8233 8.49056 7.17913 8.48986H7.69382V7.45782C7.69382 7.09826 7.83666 6.75343 8.0909 6.49918C8.34515 6.24494 8.68998 6.1021 9.04954 6.1021H16.9504C17.3099 6.1021 17.6547 6.24494 17.909 6.49918C18.1632 6.75343 18.3061 7.09826 18.3061 7.45782V8.48986H18.8208C19.1766 8.49056 19.5176 8.63222 19.7692 8.88383C20.0208 9.13543 20.1625 9.47648 20.1632 9.83231V10.8776Z" fill="#2272FB"/>
<path d="M15.3877 18.8367C15.3877 18.907 15.4156 18.9745 15.4654 19.0243C15.5152 19.074 15.5826 19.102 15.653 19.102H16.7142C16.7846 19.102 16.8521 19.074 16.9018 19.0243C16.9516 18.9745 16.9795 18.907 16.9795 18.8367V17.5101H15.3877V18.8367Z" fill="#2272FB"/>
<path d="M9.02051 18.8367C9.02051 18.907 9.04846 18.9745 9.09821 19.0243C9.14797 19.074 9.21545 19.102 9.28581 19.102H10.347C10.4174 19.102 10.4849 19.074 10.5346 19.0243C10.5844 18.9745 10.6123 18.907 10.6123 18.8367V17.5101H9.02051V18.8367Z" fill="#2272FB"/>
<path d="M17.7756 9.02039H8.22461V13.2653H17.7756V9.02039Z" fill="#2272FB"/>
<path d="M16.9505 6.63257H9.04971C8.83088 6.63257 8.62101 6.7195 8.46628 6.87424C8.31154 7.02897 8.22461 7.23884 8.22461 7.45767V8.48971H17.7756V7.45767C17.7756 7.23884 17.6887 7.02897 17.534 6.87424C17.3792 6.7195 17.1694 6.63257 16.9505 6.63257Z" fill="#2272FB"/>
<path d="M8.22461 16.9796H17.7756V13.7959H8.22461V16.9796ZM15.9185 14.8571C16.0234 14.8571 16.126 14.8882 16.2133 14.9465C16.3005 15.0049 16.3685 15.0877 16.4087 15.1847C16.4489 15.2816 16.4594 15.3883 16.4389 15.4913C16.4184 15.5942 16.3679 15.6887 16.2937 15.7629C16.2195 15.8371 16.1249 15.8877 16.022 15.9082C15.9191 15.9286 15.8124 15.9181 15.7154 15.878C15.6185 15.8378 15.5356 15.7698 15.4773 15.6825C15.419 15.5953 15.3879 15.4927 15.3879 15.3877C15.3879 15.247 15.4438 15.112 15.5433 15.0125C15.6428 14.913 15.7778 14.8571 15.9185 14.8571ZM11.9389 15.3877H14.0613C14.1317 15.3877 14.1992 15.4157 14.2489 15.4654C14.2987 15.5152 14.3266 15.5827 14.3266 15.653C14.3266 15.7234 14.2987 15.7909 14.2489 15.8406C14.1992 15.8904 14.1317 15.9183 14.0613 15.9183H11.9389C11.8685 15.9183 11.801 15.8904 11.7513 15.8406C11.7015 15.7909 11.6736 15.7234 11.6736 15.653C11.6736 15.5827 11.7015 15.5152 11.7513 15.4654C11.801 15.4157 11.8685 15.3877 11.9389 15.3877ZM10.0818 14.8571C10.1867 14.8571 10.2893 14.8882 10.3765 14.9465C10.4638 15.0049 10.5318 15.0877 10.572 15.1847C10.6121 15.2816 10.6226 15.3883 10.6022 15.4913C10.5817 15.5942 10.5312 15.6887 10.457 15.7629C10.3827 15.8371 10.2882 15.8877 10.1853 15.9082C10.0823 15.9286 9.97565 15.9181 9.8787 15.878C9.78174 15.8378 9.69887 15.7698 9.64056 15.6825C9.58226 15.5953 9.55114 15.4927 9.55114 15.3877C9.55114 15.247 9.60704 15.112 9.70655 15.0125C9.80606 14.913 9.94102 14.8571 10.0818 14.8571Z" fill="#2272FB"/>
<path d="M13 0C10.4288 0 7.91543 0.762437 5.77759 2.19089C3.63975 3.61935 1.97351 5.64967 0.989571 8.02511C0.00563251 10.4006 -0.251811 13.0144 0.249797 15.5362C0.751405 18.0579 1.98953 20.3743 3.80762 22.1924C5.6257 24.0105 7.94208 25.2486 10.4638 25.7502C12.9856 26.2518 15.5994 25.9944 17.9749 25.0104C20.3503 24.0265 22.3806 22.3602 23.8091 20.2224C25.2376 18.0846 26 15.5712 26 13C26 9.55218 24.6304 6.24558 22.1924 3.80761C19.7544 1.36964 16.4478 0 13 0ZM12.8673 23.8775C10.6897 23.8775 8.56103 23.2318 6.75041 22.022C4.93979 20.8122 3.52859 19.0926 2.69525 17.0808C1.86191 15.0689 1.64388 12.8551 2.06871 10.7194C2.49354 8.58359 3.54216 6.62176 5.08196 5.08196C6.62177 3.54215 8.5836 2.49353 10.7194 2.0687C12.8551 1.64387 15.0689 1.86191 17.0808 2.69524C19.0926 3.52858 20.8122 4.93979 22.022 6.7504C23.2318 8.56102 23.8776 10.6897 23.8776 12.8673C23.874 15.7864 22.7129 18.5848 20.6489 20.6489C18.5848 22.7129 15.7864 23.874 12.8673 23.8775Z" fill="#2272FB"/>
</svg>
