<svg width="48" height="46" viewBox="0 0 48 46" fill="none" xmlns="http://www.w3.org/2000/svg">
<path fill-rule="evenodd" clip-rule="evenodd" d="M7.23729 1C3.79253 1 1 3.38781 1 6.33336V33.5691C1 36.5147 3.79253 38.9024 7.23729 38.9024H18.1307L21.126 43.6082C22.3072 45.4639 25.423 45.4639 26.6043 43.6082L29.5996 38.9024H40.7627C44.2073 38.9024 47 36.5147 47 33.5691V6.33336C47 3.38783 44.2073 1 40.7627 1H7.23729Z" fill="#2272FB" stroke="#D8E2EE"/>
<path d="M32.8053 28.2413C32.806 27.883 33.0767 27.5929 33.4108 27.592H35.8433C36.1774 27.5929 36.448 27.883 36.4488 28.2413C36.448 28.5995 36.1774 28.8897 35.8433 28.8905H33.4108C33.0767 28.8897 32.806 28.5995 32.8053 28.2413ZM27.9623 28.2413C27.9616 28.5995 27.6909 28.8897 27.3568 28.8905H24.9244C24.5902 28.8897 24.3196 28.5995 24.3188 28.2413C24.3196 27.883 24.5902 27.5929 24.9244 27.592H27.3568C27.6909 27.5929 27.9616 27.883 27.9623 28.2413ZM25.0279 13.8521H35.7954C36.1868 13.8521 36.5037 14.1918 36.5037 14.6115L36.1413 23.3148V23.3156C36.1413 23.7353 35.8244 24.0751 35.433 24.0751H25.3926C25.0012 24.0751 24.6843 23.7353 24.6843 23.3156V23.3148L24.3219 14.6115C24.3219 14.1918 24.6396 13.8521 25.031 13.8521H25.0279ZM38.9001 15.487H37.6992V12.8438C37.6984 12.3577 37.3313 11.9632 36.8779 11.9624H23.9509C23.4983 11.9641 23.1312 12.3577 23.1304 12.8429V15.4861H21.9742C21.7742 15.487 21.6126 15.6602 21.6118 15.8746V19.0922C21.6118 19.3067 21.7742 19.4799 21.9742 19.4808H23.1304V32.1417H26.1465V30.4489H34.669V32.1417H37.6858V29.7542C37.6976 29.6987 37.7046 29.6348 37.7054 29.5692V19.4774H38.9063C39.1064 19.4766 39.268 19.3033 39.2687 19.0889V15.8713C39.2687 15.6568 39.1064 15.4836 38.9063 15.4828L38.9001 15.487Z" fill="white"/>
<path d="M9.78419 12.0879L21.2838 8.05375C21.6061 7.9511 21.9583 7.99684 22.2428 8.17874C22.5273 8.36065 22.7143 8.65949 22.7523 8.99234C22.7768 9.25531 22.709 9.51882 22.5601 9.73787C22.4112 9.9572 22.1905 10.1188 21.9352 10.1957L11.5235 13.8872C11.3617 13.9391 11.2553 14.0917 11.2637 14.2598V28.1927C11.2637 28.2917 11.3034 28.3863 11.3741 28.4562C11.4447 28.5261 11.5403 28.5653 11.6401 28.5653H17.5632C17.8629 28.5653 18.15 28.683 18.362 28.8927C18.5739 29.1022 18.6929 29.3865 18.6929 29.683V31.0241C18.6929 31.3203 18.5739 31.6046 18.362 31.8143C18.15 32.0238 17.8629 32.1418 17.5632 32.1418H9.75406C9.55444 32.1418 9.36271 32.063 9.22167 31.9235C9.08036 31.7837 9.00104 31.5942 9.00104 31.3965V13.258V13.1985C8.99079 12.9542 9.06197 12.7133 9.20328 12.5127C9.34485 12.3121 9.54885 12.1627 9.78419 12.0879Z" fill="white"/>
</svg>
