<svg fill="none" height="28" viewBox="0 0 36 28" width="36" xmlns="http://www.w3.org/2000/svg"><path clip-rule="evenodd" d="m14.5 28c-8.00813 0-14.5-6.268-14.5-14 0-7.73199 6.49187-14 14.5-14 3.3559 0 6.4455 1.10075 8.9027 2.9487.0359.01372.0685.03065.0973.0513l.2338.20526c.3525.2814.691.57858 1.0143.89043l10.7406 9.42941c.3196.2867.5113.6307.5113.9748 0 .4013-.1917.7454-.5113.9747l-11.9887 9.5254c-.049.044-.1327.0979-.2407.1578-2.4335 1.7837-5.4684 2.8422-8.7593 2.8422zm14.4907-13.4926c.0001-.0052.0003-.0105.0005-.0157l.0088.0082z" fill="#009e65" fill-rule="evenodd"/></svg>