<svg fill="none" height="17" viewBox="0 0 16 17" width="16" xmlns="http://www.w3.org/2000/svg"><path d="m6.09529 13.165c-.00064-.27-.21861-.4887-.48777-.4894h-1.95927c-.26915.0007-.48713.2194-.48776.4894.00063.2701.21861.4888.48776.4894h1.95927c.26916-.0006.48713-.2193.48777-.4894zm3.90084 0c.00063.2701.21857.4888.48777.4894h1.9593c.2691-.0006.4871-.2193.4877-.4894-.0006-.27-.2186-.4887-.4877-.4894h-1.9593c-.2692.0007-.48714.2194-.48777.4894zm2.36367-10.84609h-8.673c-.31528 0-.57054.2561-.57054.57242l.2919 6.56027v.00064c0 .31631.25526.57246.57054.57246h8.0873c.3152 0 .5705-.25615.5705-.57246v-.00064l.2919-6.56027c0-.31632-.2559-.57242-.5712-.57242zm-11.17374 1.23231h.96731v-1.99236c.00064-.36639.29633-.663695.66152-.664329h10.41231c.3646.001268.6603.297939.6609.663699v1.99236h.9313c.1611.00063.2913.13122.2919.29286v2.42532c0 .16165-.1308.29223-.2919.29286h-.9313v9.54347h-2.4293v-1.2761h-6.86471v1.2761h-2.42998v-1.7997c-.00947-.0418-.01516-.09-.01579-.1395v-7.6068h-.96731c-.16112-.00064-.291272-.13122-.291904-.29287v-2.42531c0-.16165.130784-.29223.291904-.29287z" fill="#fffffe"/></svg>