<svg width="36" height="28" viewBox="0 0 36 28" fill="none" xmlns="http://www.w3.org/2000/svg">
<g clip-path="url(#clip0_546_253)">
<path fill-rule="evenodd" clip-rule="evenodd" d="M14.5 28C6.49187 28 0 21.732 0 14C0 6.26801 6.49187 0 14.5 0C17.8559 0 20.9455 1.10075 23.4027 2.9487C23.4386 2.96242 23.4712 2.97935 23.5 3L23.7338 3.20526C24.0863 3.48666 24.4248 3.78384 24.7481 4.09569L35.4887 13.5251C35.8083 13.8118 36 14.1558 36 14.4999C36 14.9012 35.8083 15.2453 35.4887 15.4746L23.5 25C23.451 25.044 23.3673 25.0979 23.2593 25.1578C20.8258 26.9415 17.7909 28 14.5 28ZM28.9907 14.5074C28.9908 14.5022 28.991 14.4969 28.9912 14.4917L29 14.4999L28.9907 14.5074Z" fill="#EE4646"/>
</g>
<defs>
<clipPath id="clip0_546_253">
<rect width="36" height="28" fill="white"/>
</clipPath>
</defs>
</svg>
