<svg fill="none" height="34" viewBox="0 0 26 34" width="26" xmlns="http://www.w3.org/2000/svg"><g fill="#2272fb"><path d="m11.4082 26.4379v6.9908h3.1837v-6.9908c-1.0577.1234-2.1261.1234-3.1837 0z"/><path d="m12.8673 2.38782c-2.0727 0-4.0988.61461-5.82216 1.76613-1.72336 1.15151-3.06655 2.7882-3.85973 4.70309-.79317 1.91486-1.0007 4.02196-.59635 6.05486.40436 2.0328 1.40244 3.9001 2.86804 5.3657s3.33288 2.4637 5.3657 2.868c2.0329.4044 4.14.1969 6.0549-.5963s3.5515-2.1364 4.703-3.8597c1.1516-1.7234 1.7662-3.7495 1.7662-5.8222-.0035-2.7783-1.1088-5.44176-3.0733-7.4063-1.9645-1.96455-4.628-3.06977-7.4063-3.07328zm7.2959 8.48978c0 .0704-.0279.1379-.0777.1876-.0498.0498-.1172.0777-.1876.0777s-.1378-.0279-.1876-.0777c-.0498-.0497-.0777-.1172-.0777-.1876v-1.04529c-.0007-.2151-.0865-.42119-.2386-.57329-.1521-.15209-.3581-.23785-.5732-.23855h-.5147v8.22453c0 .0703-.028.1378-.0777.1876-.0498.0497-.1173.0777-.1876.0777h-.5307v1.3265c0 .2111-.0838.4135-.2331.5628-.1492.1493-.3517.2331-.5628.2331h-1.0612c-.2111 0-.4135-.0838-.5628-.2331s-.2331-.3517-.2331-.5628v-1.3265h-3.7143v1.3265c0 .2111-.0839.4135-.2331.5628-.1493.1493-.3517.2331-.5628.2331h-1.06124c-.21109 0-.41354-.0838-.5628-.2331s-.23312-.3517-.23312-.5628v-1.3265h-.53061c-.07037 0-.13785-.028-.1876-.0777-.04976-.0498-.07771-.1173-.07771-.1876v-8.22453h-.51469c-.2151.0007-.42119.08646-.57328.23855-.1521.1521-.23786.35819-.23856.57329v1.04529c0 .0704-.02795.1379-.0777.1876-.04976.0498-.11724.0777-.1876.0777-.07037 0-.13785-.0279-.1876-.0777-.04976-.0497-.07771-.1172-.07771-.1876v-1.04529c.0007-.35583.14236-.69688.39397-.94848.2516-.25161.59265-.39327.94848-.39397h.51469v-1.03204c0-.35956.14284-.70439.39708-.95864.25425-.25424.59908-.39708.95864-.39708h7.90086c.3595 0 .7043.14284.9586.39708.2542.25425.3971.59908.3971.95864v1.03204h.5147c.3558.0007.6968.14236.9484.39397.2516.2516.3933.59265.394.94848z"/><path d="m15.3877 18.8367c0 .0703.0279.1378.0777.1876.0498.0497.1172.0777.1876.0777h1.0612c.0704 0 .1379-.028.1876-.0777.0498-.0498.0777-.1173.0777-.1876v-1.3266h-1.5918z"/><path d="m9.02051 18.8367c0 .0703.02795.1378.0777.1876.04976.0497.11724.0777.1876.0777h1.06119c.0704 0 .1379-.028.1876-.0777.0498-.0498.0777-.1173.0777-.1876v-1.3266h-1.59179z"/><path d="m17.7756 9.02039h-9.55099v4.24491h9.55099z"/><path d="m16.9505 6.63257h-7.90079c-.21883 0-.4287.08693-.58343.24167-.15474.15473-.24167.3646-.24167.58343v1.03204h9.55099v-1.03204c0-.21883-.0869-.4287-.2416-.58343-.1548-.15474-.3646-.24167-.5835-.24167z"/><path d="m8.22461 16.9796h9.55099v-3.1837h-9.55099zm7.69389-2.1225c.1049 0 .2075.0311.2948.0894.0872.0584.1552.1412.1954.2382.0402.0969.0507.2036.0302.3066-.0205.1029-.071.1974-.1452.2716s-.1688.1248-.2717.1453c-.1029.0204-.2096.0099-.3066-.0302-.0969-.0402-.1798-.1082-.2381-.1955-.0583-.0872-.0894-.1898-.0894-.2948 0-.1407.0559-.2757.1554-.3752s.2345-.1554.3752-.1554zm-3.9796.5306h2.1224c.0704 0 .1379.028.1876.0777.0498.0498.0777.1173.0777.1876 0 .0704-.0279.1379-.0777.1876-.0497.0498-.1172.0777-.1876.0777h-2.1224c-.0704 0-.1379-.0279-.1876-.0777-.0498-.0497-.0777-.1172-.0777-.1876 0-.0703.0279-.1378.0777-.1876.0497-.0497.1172-.0777.1876-.0777zm-1.8571-.5306c.1049 0 .2075.0311.2947.0894.0873.0584.1553.1412.1955.2382.0401.0969.0506.2036.0302.3066-.0205.1029-.071.1974-.1452.2716-.0743.0742-.1688.1248-.2717.1453-.103.0204-.20965.0099-.3066-.0302-.09696-.0402-.17983-.1082-.23814-.1955-.0583-.0872-.08942-.1898-.08942-.2948 0-.1407.0559-.2757.15541-.3752s.23447-.1554.37525-.1554z"/><path d="m13 0c-2.5712 0-5.08457.762437-7.22241 2.19089-2.13784 1.42846-3.80408 3.45878-4.788019 5.83422-.98393849 2.37549-1.241382 4.98929-.739774 7.51109.501608 2.5217 1.739733 4.8381 3.557823 6.6562 1.81808 1.8181 4.13446 3.0562 6.65618 3.5578 2.5218.5016 5.1356.2442 7.5111-.7398 2.3754-.9839 4.4057-2.6502 5.8342-4.788s2.1909-4.6512 2.1909-7.2224c0-3.44782-1.3696-6.75442-3.8076-9.19239s-5.7446-3.80761-9.1924-3.80761zm-.1327 23.8775c-2.1776 0-4.30627-.6457-6.11689-1.8555s-3.22182-2.9294-4.05516-4.9412c-.83334-2.0119-1.05137-4.2257-.62654-6.3614.42483-2.13581 1.47345-4.09764 3.01325-5.63744 1.53981-1.53981 3.50164-2.58843 5.63744-3.01326 2.1357-.42483 4.3495-.20679 6.3614.62654 2.0118.83334 3.7314 2.24455 4.9412 4.05516 1.2098 1.81062 1.8556 3.9393 1.8556 6.1169-.0036 2.9191-1.1647 5.7175-3.2287 7.7816-2.0641 2.064-4.8625 3.2251-7.7816 3.2286z"/></g></svg>