<svg viewBox="0 0 595.66 702.54" xmlns="http://www.w3.org/2000/svg"><path d="m505.25 90.41a293.34 293.34 0 0 0 -500.75 207.42c0 158.5 149.87 290.33 230.38 361.17 11.19 9.84 20.85 18.34 28.55 25.53a50.52 50.52 0 0 0 68.8 0c7.7-7.19 17.36-15.69 28.55-25.53 80.51-70.82 230.38-202.66 230.38-361.16a291.44 291.44 0 0 0 -85.91-207.43z" fill="#0f9900" stroke="#ffe000" stroke-miterlimit="10" stroke-width="9"/><circle cx="297.83" cy="286.75" fill="#ffe000" r="212.72"/><path d="m194.51 435.15c-3.76 0-5.85-2.09-5.85-6.27v-286.28c0-4.18 2.09-6.27 5.85-6.27h103.65c69.37 0 112.84 37.19 112.84 110.33v79.41c0 72.3-43.47 109.08-112.84 109.08zm44.72-47.23h58.93c40.12 0 60.6-19.64 60.6-61.44v-80.24c0-43-20.48-63.52-60.6-63.52h-58.93z" fill="#0f9900"/></svg>