<svg viewBox="0 0 473.96 474.47" xmlns="http://www.w3.org/2000/svg"><circle cx="237.19" cy="237.71" fill="#0f9900" r="236.77"/><g fill="#ffe000"><path d="m237 9a228.05 228.05 0 0 1 88.74 438.05 228 228 0 0 1 -177.5-420.14 226.66 226.66 0 0 1 88.76-17.91m0-9c-130.9 0-237 106.1-237 237s106.1 237 237 237 237-106.1 237-237-106.14-237-237-237z"/><circle cx="237.19" cy="237.71" r="171.62"/><path d="m237 9a228.05 228.05 0 0 1 88.74 438.05 228 228 0 0 1 -177.5-420.14 226.66 226.66 0 0 1 88.76-17.91m0-9c-130.9 0-237 106.1-237 237s106.1 237 237 237 237-106.1 237-237-106.14-237-237-237z"/></g><path d="m160.6 364.24c-3.21 0-5-1.79-5-5.35v-244.09c0-3.56 1.78-5.35 5-5.35h88.4c59.16 0 96.22 31.72 96.22 94.08v67.7c0 61.65-37.06 93-96.22 93zm38.13-40.24h50.27c34.21 0 51.67-16.75 51.67-52.38v-68.45c0-36.7-17.46-54.16-51.67-54.16h-50.27z" fill="#0f9900"/></svg>